<svg width="400" height="400" viewBox="0 0 400 400" fill="none" xmlns="http://www.w3.org/2000/svg">
<rect width="400" height="400" rx="40" fill="white"/>
<path d="M73.9178 214V126.562H96.8643V195.401H132.492V214H73.9178ZM165.342 126.562V214H142.395V126.562H165.342ZM252.418 126.562V214H233.215L200.728 166.778H200.124V214H177.177V126.562H196.742L228.747 173.542H229.471V126.562H252.418ZM264.253 214V126.562H326.692V145.16H287.2V160.981H323.431V179.58H287.2V195.401H326.571V214H264.253Z" fill="#03BD00"/>
<path d="M70.6578 290.356V251.086H87.3641C96.1512 251.086 101.901 256.076 101.901 264.375C101.901 269.799 99.4056 273.65 95.1748 275.657L103.203 290.356H91.9746L85.0317 277.284H80.9636V290.356H70.6578ZM80.9636 269.202H84.9775C88.8828 269.202 91.1067 267.792 91.1067 264.375C91.1067 260.904 88.8828 259.331 84.9775 259.331H80.9636V269.202ZM106.565 290.356V251.086H134.608V259.439H116.871V266.545H133.144V274.898H116.871V282.003H134.554V290.356H106.565ZM165.905 265.677C165.58 261.988 163.085 259.547 158.908 259.547C153.484 259.547 150.392 263.724 150.392 270.721C150.392 278.098 153.538 281.895 158.854 281.895C162.814 281.895 165.363 279.725 165.905 276.254L176.374 276.362C175.831 283.088 169.919 290.899 158.637 290.899C147.843 290.899 139.761 283.739 139.761 270.721C139.761 257.649 148.06 250.543 158.637 250.543C168.4 250.543 175.506 256.022 176.374 265.677H165.905ZM219.116 270.721C219.116 283.793 210.763 290.899 200.131 290.899C189.392 290.899 181.093 283.739 181.093 270.721C181.093 257.649 189.392 250.543 200.131 250.543C210.763 250.543 219.116 257.649 219.116 270.721ZM208.485 270.721C208.485 263.507 205.501 259.547 200.131 259.547C194.707 259.547 191.724 263.507 191.724 270.721C191.724 277.935 194.707 281.895 200.131 281.895C205.501 281.895 208.485 277.935 208.485 270.721ZM224.16 290.356V251.086H240.867C249.654 251.086 255.403 256.076 255.403 264.375C255.403 269.799 252.908 273.65 248.677 275.657L256.705 290.356H245.477L238.534 277.284H234.466V290.356H224.16ZM234.466 269.202H238.48C242.385 269.202 244.609 267.792 244.609 264.375C244.609 260.904 242.385 259.331 238.48 259.331H234.466V269.202ZM274.984 290.356H260.068V251.086H274.876C286.972 251.086 294.511 258.463 294.511 270.721C294.511 282.98 286.972 290.356 274.984 290.356ZM270.374 281.569H274.605C280.68 281.569 284.097 279.02 284.097 270.721C284.097 262.422 280.68 259.873 274.333 259.873H270.374V281.569ZM320.709 263.236C320.493 260.578 318.757 259.059 315.231 259.059C311.814 259.059 310.295 260.361 310.241 262.205C310.187 264.212 312.031 265.351 315.665 266.111L318.92 266.87C327.381 268.66 331.124 272.782 331.178 278.803C331.124 286.505 325.212 290.845 315.285 290.845C305.142 290.845 298.579 286.397 298.471 276.742H308.343C308.505 280.376 311.055 282.329 315.123 282.329C318.648 282.329 320.547 280.864 320.601 278.803C320.547 276.905 318.974 275.82 314.58 274.843L310.621 273.976C303.732 272.457 299.501 269.04 299.501 262.965C299.447 255.534 306.01 250.543 315.231 250.543C324.669 250.543 330.581 255.588 330.636 263.236H320.709Z" fill="#03BD00"/>
</svg>
