<svg width="20" height="21" viewBox="0 0 20 21" fill="none" xmlns="http://www.w3.org/2000/svg">
<path d="M19.4368 15.8991C19.3805 15.7705 19.2896 15.6602 19.1743 15.5803C17.5833 14.4872 17.2524 12.6225 17.2524 11.25C17.2524 9.59344 18.5152 8.15063 19.268 7.43719C19.3421 7.3671 19.4011 7.28265 19.4414 7.189C19.4817 7.09535 19.5025 6.99446 19.5025 6.8925C19.5025 6.79055 19.4817 6.68966 19.4414 6.59601C19.4011 6.50235 19.3421 6.4179 19.268 6.34782C18.0793 5.22563 16.1105 4.5 14.2524 4.5C12.9176 4.50103 11.6129 4.89667 10.5024 5.63719C9.20689 4.76847 7.64916 4.37832 6.09711 4.53385C4.54507 4.68938 3.09572 5.38086 1.99834 6.48938C1.34232 7.15912 0.827579 7.95387 0.484706 8.82643C0.141834 9.69899 -0.0221801 10.6316 0.00240663 11.5688C0.0395223 13.1506 0.391409 14.7092 1.03752 16.1535C1.68363 17.5978 2.61102 18.899 3.76553 19.9809C4.46097 20.638 5.38223 21.0028 6.33897 21H14.559C15.0705 21.001 15.5767 20.8969 16.0463 20.6942C16.5159 20.4915 16.9389 20.1945 17.289 19.8216C17.9375 19.1236 18.4985 18.3491 18.9596 17.5153C19.6177 16.3125 19.5333 16.125 19.4368 15.8991ZM16.1902 18.7997C15.9808 19.022 15.728 19.1989 15.4474 19.3194C15.1668 19.4398 14.8644 19.5013 14.559 19.5H6.33897C5.76594 19.5018 5.21414 19.2833 4.79772 18.8897C3.78716 17.9436 2.97527 16.8056 2.40947 15.5421C1.84367 14.2787 1.53531 12.9152 1.50241 11.5313C1.4819 10.7959 1.60952 10.064 1.87768 9.37903C2.14585 8.69405 2.54906 8.07002 3.06334 7.54407C3.54383 7.05319 4.11786 6.66363 4.7515 6.39842C5.38513 6.13321 6.06551 5.99773 6.75241 6H6.82553C7.9939 6.01231 9.12405 6.41787 10.0337 7.15125C10.1667 7.25776 10.332 7.31578 10.5024 7.31578C10.6728 7.31578 10.8381 7.25776 10.9712 7.15125C11.9003 6.40215 13.0589 5.99564 14.2524 6C15.4442 6.01384 16.6102 6.34906 17.6274 6.97032C16.4087 8.33157 15.7524 9.82688 15.7524 11.25C15.7524 13.4784 16.4687 15.2559 17.8318 16.4344C17.4025 17.2984 16.8495 18.0953 16.1902 18.7997ZM10.524 2.8125C10.732 2.00692 11.202 1.29338 11.86 0.784213C12.518 0.275046 13.3267 -0.000833469 14.1587 1.89152e-06H14.2524C14.4513 1.89152e-06 14.6421 0.0790196 14.7827 0.219672C14.9234 0.360324 15.0024 0.55109 15.0024 0.750002C15.0024 0.948914 14.9234 1.13968 14.7827 1.28033C14.6421 1.42098 14.4513 1.5 14.2524 1.5H14.1587C13.6598 1.49996 13.1751 1.6657 12.7807 1.97116C12.3863 2.27663 12.1046 2.70449 11.9799 3.1875C11.9302 3.3802 11.8059 3.54525 11.6345 3.64634C11.4631 3.74744 11.2585 3.77629 11.0658 3.72656C10.8731 3.67684 10.7081 3.5526 10.607 3.38118C10.5059 3.20976 10.4771 3.0052 10.5268 2.8125H10.524Z" fill="black"/>
</svg>
