<svg width="19" height="21" viewBox="0 0 19 21" fill="none" xmlns="http://www.w3.org/2000/svg">
<path d="M17.9832 9.20704L2.25003 0.204226C2.02067 0.0704747 1.75992 0 1.49441 0C1.2289 0 0.968146 0.0704747 0.738785 0.204226C0.512809 0.333799 0.325323 0.521093 0.195517 0.746935C0.0657115 0.972777 -0.00175123 1.22906 3.45539e-05 1.48954V19.5139C-0.000709099 19.7741 0.0676353 20.0299 0.198086 20.255C0.328536 20.4802 0.516417 20.6667 0.742534 20.7955C0.971896 20.9292 1.23265 20.9997 1.49816 20.9997C1.76367 20.9997 2.02442 20.9292 2.25378 20.7955L17.9832 11.7955C18.2153 11.6682 18.4089 11.4809 18.5437 11.2531C18.6786 11.0253 18.7498 10.7655 18.7498 10.5008C18.7498 10.2361 18.6786 9.97624 18.5437 9.74847C18.4089 9.5207 18.2153 9.33431 17.9832 9.20704ZM1.50003 18.4395V2.56391L9.43972 10.5017L1.50003 18.4395ZM10.5 11.562L12.2738 13.3358L3.97691 18.0852L10.5 11.562ZM3.97503 2.91735L12.2747 7.66766L10.5 9.44141L3.97503 2.91735ZM13.6228 12.5642L11.5603 10.5017L13.6228 8.43923L17.2257 10.5017L13.6228 12.5642Z" fill="black"/>
</svg>
