<svg width="29" height="27" viewBox="0 0 29 27" fill="none" xmlns="http://www.w3.org/2000/svg">
<path d="M14.5 1.5C16.2802 1.5 19.6195 1.75179 22.5322 3.17578C23.9948 3.89085 25.3658 4.90983 26.3711 6.35547C27.3795 7.80557 28 9.65679 28 12C28 15.8425 25.3367 18.9723 22.2363 21.2881C19.1191 23.6164 15.4423 25.2132 13.1582 25.9746L12.3906 26.2305L12.5049 25.4297L12.9375 22.4004C10.991 22.0009 8.30893 21.1 6.0332 19.5645C3.56253 17.8973 1.50002 15.4299 1.5 12C1.5 7.76854 3.89736 5.12416 6.69336 3.56348C9.46953 2.01399 12.6826 1.5 14.5 1.5ZM5.55078 8.45801V15H9.72559V13.8799H6.90625V8.45801H5.55078ZM10.6016 8.45801V15H11.957V8.45801H10.6016ZM13.0596 8.45801V15H14.415V10.8438H14.4688L17.3428 15H18.5166V8.45801H17.1709V12.6143H17.1074L14.252 8.45801H13.0596ZM19.6191 8.45801V15H24.0195V13.8799H20.9746V12.2891H23.7852V11.1689H20.9746V9.5791H24.0107V8.45801H19.6191Z" fill="white"/>
</svg>
